<?xml version="1.0" encoding="utf-8"?>
<!-- Generator: Adobe Illustrator 23.0.6, SVG Export Plug-In . SVG Version: 6.00 Build 0)  -->
<svg version="1.1" id="Слой_1" xmlns:xodm="http://www.corel.com/coreldraw/odm/2003"
	 xmlns="http://www.w3.org/2000/svg" xmlns:xlink="http://www.w3.org/1999/xlink" x="0px" y="0px" viewBox="0 0 120 120"
	 style="enable-background:new 0 0 120 120;" xml:space="preserve">
<style type="text/css">
	.st0{fill-rule:evenodd;clip-rule:evenodd;fill:#33365A;}
	.st1{fill-rule:evenodd;clip-rule:evenodd;fill:#A2C746;}
	.st2{fill:#A2C746;}
</style>
<g id="Слой_x0020_1">
	<path class="st0" d="M0,60l15-24.8l15-24.8h30h30l15,24.8L120,60l-15,24.8l-15,24.8H60H30L15,84.8L0,60z M12.7,58.6L12.7,58.6
		l11.2-18.5l0,0l12-19.9H84l12,19.9l0,0l12,19.9l-12,19.9h0L84,99.8H35.9L11.9,60C11.9,60,12.7,58.6,12.7,58.6z"/>
	<polygon class="st1" points="31.9,85.7 31.9,58.5 33.9,58.5 33.9,89 	"/>
	<path class="st2" d="M30.7,83.7V58.5v-1.3h1.2h2h1.2v1.3V91L30.7,83.7z M70.5,44.3L70.5,44.3v50.8v0.9h-4.4v-0.9V44.3V43h1.2h2h1.2
		C70.5,43,70.5,44.3,70.5,44.3z M79.4,48.1L79.4,48.1v47v0.9H75v-0.9v-47v-1.3h1.2h2h1.2C79.4,46.9,79.4,48.1,79.4,48.1z M88.2,58.5
		L88.2,58.5v27l-4.4,7.2V58.5v-1.3H85h2h1.2C88.2,57.2,88.2,58.5,88.2,58.5z M57.3,96.1L57.3,96.1V40.2v-1.3h1.2h2h1.2v1.3v55.9
		C61.6,96.1,57.3,96.1,57.3,96.1z M48.4,95.1L48.4,95.1V44.3V43h1.2h2h1.2v1.3v50.8v0.9h-4.4V95.1z M39.5,95.1L39.5,95.1v-47v-1.3
		h1.2h2h1.2v1.3v47v0.9h-4.4C39.5,96.1,39.5,95.1,39.5,95.1z"/>
	<polygon class="st1" points="40.8,95.1 40.8,48.1 42.7,48.1 42.7,95.1 	"/>
	<polygon class="st1" points="49.6,95.1 49.6,44.3 51.6,44.3 51.6,95.1 	"/>
	<polygon class="st1" points="58.5,96.1 58.5,40.2 60.4,40.2 60.4,96.1 	"/>
	<polygon class="st1" points="87,87.5 87,58.5 85,58.5 85,90.8 	"/>
	<polygon class="st1" points="78.1,95.1 78.1,48.1 76.2,48.1 76.2,95.1 	"/>
	<polygon class="st1" points="69.3,95.1 69.3,44.3 67.3,44.3 67.3,95.1 	"/>
</g>
</svg>
